<svg width="34" height="34" viewBox="0 0 34 34" fill="none" xmlns="http://www.w3.org/2000/svg">
<circle cx="17" cy="16" r="10" fill="#4F8FFD"/>
<circle cx="17" cy="17" r="16" stroke="#D8D8D8" stroke-linecap="round" stroke-dasharray="0.1 4"/>
<path d="M16.291 15.2012H17.0645C17.4434 15.2012 17.7559 15.1387 18.002 15.0137C18.252 14.8848 18.4375 14.7109 18.5586 14.4922C18.6836 14.2695 18.7461 14.0195 18.7461 13.7422C18.7461 13.4141 18.6914 13.1387 18.582 12.916C18.4727 12.6934 18.3086 12.5254 18.0898 12.4121C17.8711 12.2988 17.5938 12.2422 17.2578 12.2422C16.9531 12.2422 16.6836 12.3027 16.4492 12.4238C16.2188 12.541 16.0371 12.709 15.9043 12.9277C15.7754 13.1465 15.7109 13.4043 15.7109 13.7012H14.627C14.627 13.2676 14.7363 12.873 14.9551 12.5176C15.1738 12.1621 15.4805 11.8789 15.875 11.668C16.2734 11.457 16.7344 11.3516 17.2578 11.3516C17.7734 11.3516 18.2246 11.4434 18.6113 11.627C18.998 11.8066 19.2988 12.0762 19.5137 12.4355C19.7285 12.791 19.8359 13.2344 19.8359 13.7656C19.8359 13.9805 19.7852 14.2109 19.6836 14.457C19.5859 14.6992 19.4316 14.9258 19.2207 15.1367C19.0137 15.3477 18.7441 15.5215 18.4121 15.6582C18.0801 15.791 17.6816 15.8574 17.2168 15.8574H16.291V15.2012ZM16.291 16.0918V15.4414H17.2168C17.7598 15.4414 18.209 15.5059 18.5645 15.6348C18.9199 15.7637 19.1992 15.9355 19.4023 16.1504C19.6094 16.3652 19.7539 16.6016 19.8359 16.8594C19.9219 17.1133 19.9648 17.3672 19.9648 17.6211C19.9648 18.0195 19.8965 18.373 19.7598 18.6816C19.627 18.9902 19.4375 19.252 19.1914 19.4668C18.9492 19.6816 18.6641 19.8438 18.3359 19.9531C18.0078 20.0625 17.6504 20.1172 17.2637 20.1172C16.8926 20.1172 16.543 20.0645 16.2148 19.959C15.8906 19.8535 15.6035 19.7012 15.3535 19.502C15.1035 19.2988 14.9082 19.0508 14.7676 18.7578C14.627 18.4609 14.5566 18.123 14.5566 17.7441H15.6406C15.6406 18.041 15.7051 18.3008 15.834 18.5234C15.9668 18.7461 16.1543 18.9199 16.3965 19.0449C16.6426 19.166 16.9316 19.2266 17.2637 19.2266C17.5957 19.2266 17.8809 19.1699 18.1191 19.0566C18.3613 18.9395 18.5469 18.7637 18.6758 18.5293C18.8086 18.2949 18.875 18 18.875 17.6445C18.875 17.2891 18.8008 16.998 18.6523 16.7715C18.5039 16.541 18.293 16.3711 18.0195 16.2617C17.75 16.1484 17.4316 16.0918 17.0645 16.0918H16.291Z" fill="white"/>
</svg>
