<svg width="41" height="37" viewBox="0 0 41 37" fill="none" xmlns="http://www.w3.org/2000/svg">
<path fill-rule="evenodd" clip-rule="evenodd" d="M7.25439 15.3458C7.4945 15.7765 7.93264 15.9622 8.42276 16.1528C9.41043 16.5463 9.153 16.7048 9.49955 17.034C9.94511 16.8756 10.1679 16.3706 10.4476 16.2221L10.6729 16.0018C11.5046 15.4671 12.7769 16.2716 13.3908 16.7741C15.8736 18.8163 17.6732 22.1481 17.7227 25.5369C19.1386 26.4057 21.0496 26.3711 22.4704 25.5641C22.5447 22.9179 23.5398 20.4921 25.0869 18.586C25.8617 17.6306 27.941 15.2988 29.3816 15.9176C29.9584 16.1651 30.144 16.8706 30.7208 17.0365C30.7876 16.9696 30.753 17.0092 30.8198 16.9177C30.8545 16.8657 30.8817 16.8162 30.9188 16.7617C31.0055 16.6305 31.0476 16.586 31.154 16.4993C31.7803 15.9968 31.7679 16.4424 32.9808 15.4126C33.013 14.7888 32.6689 13.1576 32.4338 12.4769C32.3669 12.2838 32.3496 12.2467 32.2481 12.1278C30.3 12.0041 26.879 12.3605 25.0201 12.8605C20.8887 13.967 21.1139 16.0339 20.0792 16.0042C18.9901 15.9745 19.2401 13.5413 13.5666 12.5189C12.9477 12.4075 12.3264 12.3952 11.7249 12.3011C10.861 12.1625 8.84605 12.0437 7.88809 12.1353C7.74699 12.7095 7.08112 14.7072 7.25439 15.3458Z" fill="#4188FF"/>
<path fill-rule="evenodd" clip-rule="evenodd" d="M20.1412 30.6066C22.4384 30.5991 24.8543 29.9976 26.5301 28.8466C26.8891 28.5991 27.3594 28.4134 27.0128 27.8366C26.5277 27.0322 26.2974 26.6089 25.9558 25.6014C25.3667 25.4554 24.5919 26.5445 23.3889 26.3712C22.6265 26.2598 23.1166 25.5197 22.1661 26.1435C21.9656 26.2772 21.8443 26.3366 21.5868 26.4331C21.0794 26.6262 20.7452 26.7128 20.1462 26.7153C18.4877 26.7227 17.8193 25.8588 17.5768 25.8811C17.4406 25.8935 16.8861 26.9579 15.1138 25.9009C14.8365 25.7351 14.6608 25.5544 14.334 25.5692C14.1756 25.8316 13.9924 26.3737 13.839 26.698C13.2003 28.0619 12.6706 28.2525 13.6385 28.8342C15.6014 30.0273 17.6238 30.6091 20.1412 30.6066Z" fill="#FF931E"/>
<path fill-rule="evenodd" clip-rule="evenodd" d="M9.15756 11.8532C9.78383 10.5734 14.4375 12.0289 15.4648 12.3705C16.7223 12.7913 18.2273 13.7567 19.0788 14.7295C20.6606 16.539 19.7843 15.7122 22.1408 13.7963C24.0468 12.2492 27.1881 11.4868 29.6189 11.3779C30.4704 11.3383 30.6189 11.311 31.0868 11.8631H31.5422L31.5843 10.3778C27.7723 10.0684 23.4552 11.0982 21.0566 14.128C20.819 14.425 20.4551 15.133 20.0788 15.2073C19.8412 15.1825 19.0194 13.826 18.1629 13.0661C15.6504 10.8432 12.1503 10.1947 8.65011 10.3704C8.61051 10.6823 8.63774 11.0041 8.63526 11.3234C8.63526 11.9299 8.59565 11.8705 9.15756 11.8532Z" fill="#FF931E"/>
<path fill-rule="evenodd" clip-rule="evenodd" d="M26.2327 25.3681C26.2574 25.7964 27.0619 27.5143 27.2946 27.7989C28.005 27.7667 30.0447 25.3038 30.4853 24.7394C31.0992 23.9547 32.379 21.561 32.5325 20.4719C32.3839 20.4867 30.6685 21.2343 30.9185 19.5981C30.3046 19.3307 30.4754 19.2094 30.2898 18.8208C30.1413 19.0782 30.114 19.5065 30.0125 19.8406C29.8863 20.2441 29.8021 20.462 29.666 20.8184C29.4135 21.4892 29.1214 22.0066 28.7526 22.6106C28.1486 23.6057 27.0792 24.7815 26.2327 25.3681Z" fill="#4188FF"/>
<path fill-rule="evenodd" clip-rule="evenodd" d="M9.30829 19.6231C9.44196 20.898 8.58301 20.6504 7.74634 20.5341C7.87506 21.7619 9.16472 23.9526 9.78108 24.8239C10.2762 25.5244 12.353 27.7943 12.9248 27.829C13.1426 27.475 13.9595 25.767 13.9842 25.366C12.2218 24.1753 10.9074 22.0292 10.2365 19.935C10.1474 19.6553 10.0336 19.0711 9.92713 18.8682C9.83307 19.0414 9.8801 19.1454 9.71672 19.336C9.5781 19.5093 9.46176 19.5093 9.30829 19.6231Z" fill="#4188FF"/>
<path fill-rule="evenodd" clip-rule="evenodd" d="M9.97217 10.1352C10.898 10.1971 10.2865 9.83321 11.6579 10.0114C14.6902 10.4025 17.8092 11.7566 19.5889 14.3879C20.0741 15.1082 20.1409 15.1032 20.5766 14.4547C20.9529 13.8953 21.438 13.3358 21.9009 12.9101C22.646 12.2195 23.2228 11.863 24.1461 11.3506C24.8417 10.9694 26.0422 10.4991 26.8789 10.3258C30.5251 9.56339 29.0225 10.2565 30.2404 10.1253V9.32328C28.369 9.14506 25.7823 9.94955 24.1609 10.8555C23.1163 11.4422 21.2351 12.9373 20.5444 13.9695C20.3835 14.2121 20.3439 14.4101 20.0815 14.5215C19.938 14.4176 19.5766 13.8309 19.2523 13.4596C18.9552 13.1155 18.5542 12.7393 18.2894 12.4868C16.2249 10.5486 12.9129 9.15248 9.97712 9.31091L9.97217 10.1352Z" fill="#FF931E"/>
<path fill-rule="evenodd" clip-rule="evenodd" d="M31.2181 17.7073C31.0324 18.0044 30.6859 18.0762 30.6042 18.5539C30.468 19.3237 31.0596 19.101 31.2106 19.3708C31.3443 19.6208 30.8121 20.2545 31.5696 20.3238C32.0151 20.3634 32.483 20.1505 32.7478 19.8906C33.2503 19.3955 32.8493 19.0118 32.9632 18.6455C33.0275 18.44 33.1389 18.3732 33.2008 18.0712C33.2751 17.7098 33.2182 17.6256 33.1612 17.3038C33.0721 16.8088 33.5152 16.6429 33.332 15.9399C33.1538 15.2419 32.7256 15.8904 32.3963 16.0711C31.9928 16.2914 31.1611 16.4746 31.0225 17.0811C30.9284 17.5019 31.1067 17.4499 31.2181 17.7073Z" fill="#FF931E"/>
<path fill-rule="evenodd" clip-rule="evenodd" d="M9.58477 19.0243C9.68873 17.9921 9.25802 18.2124 8.98573 17.7074C9.08474 17.4599 9.15653 17.5762 9.19366 17.3163C9.30753 16.5341 8.06242 16.2519 7.69359 16.0167C7.38417 15.8162 7.35942 15.5811 7.02029 15.6058C6.95593 15.8311 6.83959 15.9474 6.84702 16.3063C6.85692 16.7247 7.03515 16.8237 7.06733 17.0762C7.10198 17.3435 6.93613 17.5316 6.99307 17.9599C7.03267 18.2767 7.18862 18.4228 7.23813 18.6777C7.35942 19.3312 6.92128 19.5788 7.71835 20.0813C8.22332 20.3981 8.63175 20.4625 9.06742 20.0714C9.08969 19.7619 8.92385 19.507 9.04266 19.3312C9.20851 19.148 9.12187 19.2842 9.34961 19.1926C9.60704 19.0911 9.4511 19.1357 9.58477 19.0243Z" fill="#FF931E"/>
<path fill-rule="evenodd" clip-rule="evenodd" d="M40.3788 10.7366C40.2798 10.4123 39.864 7.60275 39.9828 7.00866C40.0273 6.78588 40.1833 6.54082 40.2031 6.39477C40.3318 5.33779 36.844 6.48884 35.5865 9.26124C34.7697 11.0608 35.1954 13.1575 34.985 15.4001C34.3612 22.0886 31.8636 26.9947 26.398 30.0419L24.2048 31.1162C24.2618 31.5345 25.5465 32.8217 25.8014 33.0569C26.2049 33.4257 27.4476 34.4059 27.9402 34.5421C28.2421 34.6213 29.8907 33.495 30.2076 33.2549C31.4626 32.3068 33.1458 30.985 34.4429 30.277C35.9059 29.4775 37.3143 28.173 37.9332 26.5194C38.0767 26.1358 38.3119 25.4773 38.1337 24.9674C37.8886 24.2891 37.3886 24.7248 36.9752 24.4748C36.9034 24.0218 37.2128 23.653 37.4554 23.3955C38.3985 22.3782 38.7352 22.0688 39.2723 20.4325C39.5446 19.6058 39.7179 18.7666 39.8219 17.8235C40.0917 15.3952 39.0496 15.863 38.8862 15.6031C38.7649 15.0412 39.1659 14.8184 39.4308 14.5412C40.156 13.801 40.1461 13.3307 40.3343 12.6154C40.3912 12.3678 40.4828 11.0782 40.3788 10.7366ZM25.3881 31.3761C25.4029 31.3662 25.4178 31.3464 25.4227 31.3414C25.4326 31.334 25.4499 31.3167 25.4598 31.3093L27.6654 30.0963C28.3486 29.683 29.1085 29.173 29.7026 28.6433C30.8363 27.6358 32.0418 26.2645 32.9503 24.8214C34.589 22.2222 35.5024 20.0909 35.8192 16.9646C35.891 16.2814 35.9479 14.1823 36.1608 13.7614C36.6633 13.7218 36.7004 14.6872 36.7227 15.0833C36.8366 17.3086 36.4752 19.5068 35.6459 21.5044C34.5172 24.2198 32.3364 27.0566 30.1432 28.8413C29.1679 29.6409 26.5663 31.3365 25.3881 31.3761ZM34.3612 28.5319C33.1359 29.8587 30.7447 31.3167 29.1531 32.0296C28.8065 32.1855 26.9277 32.948 26.6604 32.839C26.7173 32.6336 26.6332 32.7895 26.8956 32.6831L27.8436 32.3242C29.9897 31.3934 31.423 30.5419 33.1533 28.9304C33.73 28.3883 34.5593 27.3289 34.9974 27.3536C35.0642 27.8858 34.6211 28.2472 34.3612 28.5319ZM36.9529 27.1507C36.6732 27.6334 36.0197 28.6186 35.4702 28.6953C35.5147 28.1383 36.5866 27.0145 36.0866 26.3412C35.9306 26.1308 35.1632 26.0343 35.792 25.4946C36.0445 25.2768 36.4579 25.0763 36.8712 25.1555C37.8614 25.3511 37.2426 26.6531 36.9529 27.1507ZM35.4949 25.1209C33.9454 27.3388 32.1235 29.2275 29.8561 30.5988C29.0714 31.0716 27.0094 32.1311 26.0118 32.1905C26.4475 31.8365 27.304 31.584 27.8931 31.2919C32.2968 29.1161 34.1979 26.0986 36.3836 21.8955C36.5544 21.5663 36.6485 21.1727 37.0123 21.1652C37.3317 22.1504 35.943 24.4797 35.4949 25.1209ZM38.9555 18.9028C38.8144 19.5563 38.3515 20.8781 37.7426 20.9722C37.7005 20.2989 38.458 18.6651 37.8416 18.1255C37.5495 17.8656 36.8366 18.1775 37.2822 17.2368C37.6881 16.3705 39.6387 15.7467 38.9555 18.9028ZM39.3862 11.645C39.3144 12.3629 38.8664 13.9174 38.0767 13.8555C38.0074 13.4867 38.2748 12.7812 38.2847 12.2218C38.3317 10.041 37.2401 10.2662 36.8168 10.9915C36.6435 11.291 36.4554 12.0064 36.0618 12.0039C35.4504 10.6054 37.6832 6.85766 38.7847 8.64982C39.208 9.3355 39.4927 10.5905 39.3862 11.645Z" fill="#FF931E"/>
<path fill-rule="evenodd" clip-rule="evenodd" d="M13.6228 29.933C7.33043 26.2918 5.14964 20.2148 5.13726 12.4718C5.13726 11.65 5.15459 11.202 5.0234 10.442C4.67684 8.40234 2.63962 6.34779 0.681614 6.02847C-0.494182 5.83539 0.198919 6.66711 0.241 7.2315C0.300409 8.03104 0.562797 9.34545 0.453881 10.2415C0.384571 10.8158 0.305359 10.6005 0.305359 11.3505C0.305359 11.3505 0.186542 13.3135 0.644484 14.0214C0.830136 14.3085 0.857365 14.4769 1.08757 14.6947C1.31778 14.9175 1.50096 15.1081 1.40937 15.5982C1.19896 15.9349 0.394472 15.3061 0.394472 17.2592C0.394472 19.0909 1.15688 21.6876 2.35001 22.9575C2.60497 23.2322 3.43916 23.9352 3.25351 24.4724C3.04311 24.7397 1.42175 23.9674 2.27575 26.4774C2.80547 28.0245 4.29811 29.485 5.74125 30.2548C7.42449 31.1509 8.49385 32.2029 9.99639 33.2203C10.39 33.4926 11.9396 34.6015 12.2391 34.5496C12.6896 34.4704 14.0461 33.3861 14.3926 33.0842C14.712 32.8044 15.9472 31.5172 16.0165 31.1138C15.9942 31.1014 14.0387 30.1756 13.6228 29.933ZM0.840037 11.6896C0.681614 10.6995 1.11728 7.55329 2.56041 8.286C3.61492 8.82315 4.63229 11.2044 4.11741 11.9867C3.5258 11.8951 3.58026 10.65 2.82033 10.5064C1.99603 10.348 1.89454 11.5411 1.92177 12.2837C1.9391 12.7664 2.03564 13.0511 2.14455 13.4446C2.38714 14.3234 1.19401 13.91 0.840037 11.6896ZM2.35991 18.1033C1.7782 19.0761 2.52576 20.039 2.4713 20.9673C1.44155 20.8435 0.189018 16.2319 2.09504 16.5661C2.67675 16.67 3.07529 17.1478 3.04311 17.8706C2.62725 18.1577 2.89459 17.9647 2.35991 18.1033ZM3.44412 25.1927C4.0283 25.1605 4.62734 25.3759 4.62734 26.0319C4.36742 26.1977 3.70403 26.3066 4.14712 27.3809C4.28821 27.725 4.74368 28.4404 4.77833 28.678C3.96642 28.73 1.69899 25.2818 3.44412 25.1927ZM5.19172 27.376C5.5853 27.2695 5.91948 27.7819 6.18434 28.0641C7.96412 29.9553 9.91966 31.3044 12.3084 32.2821C12.6178 32.4109 13.2218 32.6089 13.4743 32.7772C11.5608 32.8317 5.03577 28.8538 5.19172 27.376ZM10.3231 30.5766C8.16958 29.2449 6.08037 27.2076 4.71893 25.1259C4.2288 24.3734 2.97627 22.3411 3.17183 21.1851C3.55551 21.1232 3.69413 21.6183 3.83027 21.9104C4.209 22.7173 4.84517 23.7842 5.29321 24.5838C6.80318 27.2671 9.5335 30.084 12.3604 31.3167C12.848 31.5296 13.8604 31.9158 14.202 32.1905C13.2168 32.1534 11.1722 31.1014 10.3231 30.5766ZM10.0484 28.8216C7.65965 26.9255 4.85259 23.1084 4.03573 20.0365C3.62977 18.4894 3.3352 16.6329 3.48867 14.9917C3.53075 14.5586 3.55303 13.7466 4.05058 13.7541C4.49614 14.9323 3.80057 19.7989 7.26607 24.8313C11.0905 30.3835 13.7862 30.4355 14.8258 31.3786C13.6129 31.3415 11.0633 29.631 10.0484 28.8216Z" fill="#FF931E"/>
<path fill-rule="evenodd" clip-rule="evenodd" d="M29.861 16.4546C29.0491 16.8284 29.1877 18.4027 30.1679 18.4027C30.5244 18.4027 31.1358 17.8012 30.2694 16.8977C30.2001 16.8259 30.1605 16.7838 30.0937 16.6997C29.9253 16.4967 30.0664 16.5982 29.861 16.4546Z" fill="#FF931E"/>
<path fill-rule="evenodd" clip-rule="evenodd" d="M10.6011 18.2145C10.6457 18.0957 10.7199 18.061 10.7917 17.9076C10.866 17.7467 10.8858 17.6105 10.8833 17.3853C10.8759 16.8333 10.6531 16.8357 10.6011 16.5634C10.5219 16.5238 10.4451 16.5016 10.356 16.4595C10.1654 16.5981 10.2991 16.4941 10.1531 16.6699C10.0837 16.7491 10.0466 16.7961 9.97978 16.8679C9.84364 17.0189 9.73967 17.0956 9.65551 17.2367C9.54164 17.4273 9.20004 18.7591 10.6011 18.2145Z" fill="#FF931E"/>
<path fill-rule="evenodd" clip-rule="evenodd" d="M26.0054 34.1783C25.2058 33.6412 24.5053 32.8317 23.936 32.0668C23.6414 31.6683 23.3914 30.995 23.1364 30.7004C22.6661 30.6856 22.2775 30.8762 21.7304 30.9207C20.2229 31.0346 20.1313 31.0272 18.6709 30.9356C16.7228 30.8143 17.3936 30.141 16.6634 31.443C16.4876 31.7525 16.297 32.0396 16.0643 32.3416C15.5618 32.9976 15.2475 33.2921 14.6286 33.8441C13.8835 34.515 13.5221 34.5669 13.0914 34.859C12.8389 35.0298 12.9825 34.8318 12.9231 35.0744C13.6855 35.3764 14.6534 35.5744 15.5321 35.7873C15.9554 35.8888 16.4876 36.0175 16.901 36.0596C18.5842 36.2254 17.8342 36.3071 18.307 36.4037C18.6932 35.921 19.0595 34.5843 19.2229 34.3615L20.9358 34.3565C21.0943 34.3937 21.0423 34.4184 21.1957 34.8541C21.5002 35.7155 21.4779 35.5026 21.7849 36.1462L21.9136 36.4037C22.4557 36.2774 21.4631 36.2898 23.2132 36.0447C24.1909 35.9061 26.0153 35.4853 26.9658 35.1734C27.2629 35.0769 27.1143 35.1907 27.2629 35.0001C27.2084 34.9308 26.2232 34.3268 26.0054 34.1783ZM20.4457 33.0075L19.8343 33.0099L19.4803 33L19.7254 31.3762L20.0794 31.3663L20.1412 31.3589L20.4729 31.3886L20.723 33.0025L20.4457 33.0075Z" fill="#4188FF"/>
<path d="M24.7343 5.64423C25.8246 3.05046 24.6057 0.0639956 22.0119 -1.02624C19.4182 -2.11647 16.4317 -0.897612 15.3415 1.69615C14.2512 4.28992 15.4701 7.27638 18.0639 8.36662C20.6576 9.45685 23.6441 8.23799 24.7343 5.64423Z" fill="#FF931E"/>
</svg>
