<svg width="55" height="55" viewBox="0 0 55 55" fill="none" xmlns="http://www.w3.org/2000/svg">
<rect width="55" height="55" rx="16" fill="#5191FF" fill-opacity="0.12"/>
<path d="M22.62 27.0798C22.4959 27.1247 22.3832 27.1964 22.2899 27.2897C22.1966 27.383 22.1249 27.4957 22.08 27.6198C22.0073 27.8016 21.9895 28.0006 22.0288 28.1924C22.0681 28.3841 22.1629 28.5601 22.3013 28.6985C22.4397 28.837 22.6157 28.9317 22.8074 28.971C22.9992 29.0104 23.1983 28.9926 23.38 28.9198C23.5012 28.8692 23.6128 28.7982 23.71 28.7098C23.7983 28.6126 23.8694 28.501 23.92 28.3798C23.976 28.2611 24.0034 28.131 24 27.9998C23.9963 27.7351 23.8927 27.4815 23.71 27.2898C23.5694 27.1511 23.3908 27.0571 23.1968 27.0197C23.0028 26.9823 22.8021 27.0032 22.62 27.0798ZM35.76 23.0798L34.4 19.0498C34.1926 18.4631 33.8077 17.9553 33.2989 17.597C32.7901 17.2386 32.1824 17.0474 31.56 17.0498H24.44C23.8176 17.0474 23.2099 17.2386 22.7011 17.597C22.1923 17.9553 21.8074 18.4631 21.6 19.0498L20.24 23.1098C19.6003 23.2773 19.0339 23.6515 18.6288 24.1741C18.2237 24.6968 18.0027 25.3386 18 25.9998V29.9998C18.0017 30.6188 18.1949 31.222 18.5529 31.7269C18.911 32.2318 19.4165 32.6135 20 32.8198V33.9998C20 34.265 20.1054 34.5194 20.2929 34.7069C20.4804 34.8945 20.7348 34.9998 21 34.9998C21.2652 34.9998 21.5196 34.8945 21.7071 34.7069C21.8946 34.5194 22 34.265 22 33.9998V32.9998H34V33.9998C34 34.265 34.1054 34.5194 34.2929 34.7069C34.4804 34.8945 34.7348 34.9998 35 34.9998C35.2652 34.9998 35.5196 34.8945 35.7071 34.7069C35.8946 34.5194 36 34.265 36 33.9998V32.8198C36.5835 32.6135 37.089 32.2318 37.4471 31.7269C37.8051 31.222 37.9983 30.6188 38 29.9998V25.9998C37.9973 25.3386 37.7763 24.6968 37.3712 24.1741C36.9661 23.6515 36.3997 23.2773 35.76 23.1098V23.0798ZM23.49 19.6798C23.5571 19.4812 23.6849 19.3087 23.8554 19.1867C24.0258 19.0646 24.2304 18.9993 24.44 18.9998H31.56C31.7781 18.9884 31.9939 19.0488 32.1744 19.1715C32.355 19.2943 32.4904 19.4728 32.56 19.6798L33.61 22.9998H22.39L23.49 19.6798ZM36 29.9998C36 30.265 35.8946 30.5194 35.7071 30.7069C35.5196 30.8945 35.2652 30.9998 35 30.9998H21C20.7348 30.9998 20.4804 30.8945 20.2929 30.7069C20.1054 30.5194 20 30.265 20 29.9998V25.9998C20 25.7346 20.1054 25.4803 20.2929 25.2927C20.4804 25.1052 20.7348 24.9998 21 24.9998H35C35.2652 24.9998 35.5196 25.1052 35.7071 25.2927C35.8946 25.4803 36 25.7346 36 25.9998V29.9998ZM32.62 27.0798C32.4959 27.1247 32.3832 27.1964 32.2899 27.2897C32.1966 27.383 32.1249 27.4957 32.08 27.6198C32.0073 27.8016 31.9895 28.0006 32.0288 28.1924C32.0681 28.3841 32.1629 28.5601 32.3013 28.6985C32.4397 28.837 32.6157 28.9317 32.8074 28.971C32.9992 29.0104 33.1983 28.9926 33.38 28.9198C33.5041 28.8749 33.6168 28.8033 33.7101 28.7099C33.8034 28.6166 33.8751 28.5039 33.92 28.3798C33.976 28.2611 34.0034 28.131 34 27.9998C33.9963 27.7351 33.8927 27.4815 33.71 27.2898C33.5694 27.1511 33.3908 27.0571 33.1968 27.0197C33.0028 26.9823 32.8021 27.0032 32.62 27.0798ZM29 26.9998H27C26.7348 26.9998 26.4804 27.1052 26.2929 27.2927C26.1054 27.4803 26 27.7346 26 27.9998C26 28.265 26.1054 28.5194 26.2929 28.7069C26.4804 28.8945 26.7348 28.9998 27 28.9998H29C29.2652 28.9998 29.5196 28.8945 29.7071 28.7069C29.8946 28.5194 30 28.265 30 27.9998C30 27.7346 29.8946 27.4803 29.7071 27.2927C29.5196 27.1052 29.2652 26.9998 29 26.9998Z" fill="#4F8FFD"/>
</svg>
