<svg width="55" height="55" viewBox="0 0 55 55" fill="none" xmlns="http://www.w3.org/2000/svg">
<rect width="55" height="55" rx="16" fill="#5191FF" fill-opacity="0.12"/>
<path d="M34 24C34.7911 24 35.5644 23.7654 36.2222 23.3259C36.88 22.8864 37.3927 22.2616 37.6955 21.5307C37.9982 20.7998 38.0774 19.9956 37.9231 19.2196C37.7688 18.4437 37.3878 17.731 36.8284 17.1716C36.269 16.6122 35.5563 16.2312 34.7803 16.0769C34.0044 15.9225 33.2001 16.0017 32.4692 16.3045C31.7383 16.6072 31.1136 17.1199 30.6741 17.7777C30.2346 18.4355 30 19.2089 30 20C30 21.0609 30.4214 22.0783 31.1715 22.8284C31.9217 23.5786 32.9391 24 34 24ZM34 18C34.3955 18 34.7822 18.1173 35.1111 18.3371C35.44 18.5568 35.6964 18.8692 35.8477 19.2346C35.9991 19.6001 36.0387 20.0022 35.9615 20.3902C35.8844 20.7781 35.6939 21.1345 35.4142 21.4142C35.1345 21.6939 34.7781 21.8844 34.3901 21.9616C34.0022 22.0387 33.6001 21.9991 33.2346 21.8478C32.8691 21.6964 32.5568 21.44 32.337 21.1111C32.1173 20.7822 32 20.3956 32 20C32 19.4696 32.2107 18.9609 32.5858 18.5858C32.9608 18.2107 33.4695 18 34 18ZM32.85 26.47C32.7603 26.3253 32.6351 26.2059 32.4864 26.1231C32.3376 26.0402 32.1702 25.9968 32 25.9968C31.8297 25.9968 31.6623 26.0402 31.5135 26.1231C31.3648 26.2059 31.2396 26.3253 31.15 26.47L30.15 28.1L26.86 22.5C26.7714 22.3508 26.6456 22.2272 26.4948 22.1413C26.344 22.0554 26.1735 22.0103 26 22.0103C25.8265 22.0103 25.6559 22.0554 25.5051 22.1413C25.3544 22.2272 25.2285 22.3508 25.14 22.5L18.14 34.5C18.0524 34.6516 18.0062 34.8235 18.006 34.9985C18.0057 35.1735 18.0514 35.3456 18.1385 35.4974C18.2255 35.6492 18.3509 35.7756 18.5021 35.8638C18.6533 35.952 18.8249 35.9989 19 36H37C37.1786 36.0004 37.3541 35.9528 37.5082 35.8624C37.6623 35.7719 37.7894 35.6418 37.8761 35.4856C37.9629 35.3295 38.0062 35.1529 38.0016 34.9743C37.997 34.7956 37.9447 34.6215 37.85 34.47L32.85 26.47ZM26.45 34H20.74L26 25L28.94 30L27.69 32L26.45 34ZM28.8 34L30.29 31.63L31 30.57L32 28.89L35.2 34H28.8Z" fill="#4F8FFD"/>
</svg>
