<svg width="55" height="55" viewBox="0 0 55 55" fill="none" xmlns="http://www.w3.org/2000/svg">
<rect width="55" height="55" rx="16" fill="#5191FF" fill-opacity="0.12"/>
<path d="M29 33C29.1978 33 29.3911 32.9414 29.5556 32.8315C29.72 32.7216 29.8482 32.5654 29.9239 32.3827C29.9996 32.2 30.0194 31.9989 29.9808 31.8049C29.9422 31.6109 29.847 31.4327 29.7071 31.2929C29.5673 31.153 29.3891 31.0578 29.1951 31.0192C29.0011 30.9806 28.8 31.0004 28.6173 31.0761C28.4346 31.1518 28.2784 31.28 28.1685 31.4444C28.0586 31.6089 28 31.8022 28 32C28 32.2652 28.1054 32.5196 28.2929 32.7071C28.4804 32.8946 28.7348 33 29 33ZM34 33C34.1978 33 34.3911 32.9414 34.5556 32.8315C34.72 32.7216 34.8482 32.5654 34.9239 32.3827C34.9996 32.2 35.0194 31.9989 34.9808 31.8049C34.9422 31.6109 34.847 31.4327 34.7071 31.2929C34.5673 31.153 34.3891 31.0578 34.1951 31.0192C34.0011 30.9806 33.8 31.0004 33.6173 31.0761C33.4346 31.1518 33.2784 31.28 33.1685 31.4444C33.0586 31.6089 33 31.8022 33 32C33 32.2652 33.1054 32.5196 33.2929 32.7071C33.4804 32.8946 33.7348 33 34 33ZM34 29C34.1978 29 34.3911 28.9414 34.5556 28.8315C34.72 28.7216 34.8482 28.5654 34.9239 28.3827C34.9996 28.2 35.0194 27.9989 34.9808 27.8049C34.9422 27.6109 34.847 27.4327 34.7071 27.2929C34.5673 27.153 34.3891 27.0578 34.1951 27.0192C34.0011 26.9806 33.8 27.0004 33.6173 27.0761C33.4346 27.1518 33.2784 27.28 33.1685 27.4444C33.0586 27.6089 33 27.8022 33 28C33 28.2652 33.1054 28.5196 33.2929 28.7071C33.4804 28.8946 33.7348 29 34 29ZM29 29C29.1978 29 29.3911 28.9414 29.5556 28.8315C29.72 28.7216 29.8482 28.5654 29.9239 28.3827C29.9996 28.2 30.0194 27.9989 29.9808 27.8049C29.9422 27.6109 29.847 27.4327 29.7071 27.2929C29.5673 27.153 29.3891 27.0578 29.1951 27.0192C29.0011 26.9806 28.8 27.0004 28.6173 27.0761C28.4346 27.1518 28.2784 27.28 28.1685 27.4444C28.0586 27.6089 28 27.8022 28 28C28 28.2652 28.1054 28.5196 28.2929 28.7071C28.4804 28.8946 28.7348 29 29 29ZM36 17H35V16C35 15.7348 34.8946 15.4804 34.7071 15.2929C34.5196 15.1054 34.2652 15 34 15C33.7348 15 33.4804 15.1054 33.2929 15.2929C33.1054 15.4804 33 15.7348 33 16V17H25V16C25 15.7348 24.8946 15.4804 24.7071 15.2929C24.5196 15.1054 24.2652 15 24 15C23.7348 15 23.4804 15.1054 23.2929 15.2929C23.1054 15.4804 23 15.7348 23 16V17H22C21.2044 17 20.4413 17.3161 19.8787 17.8787C19.3161 18.4413 19 19.2044 19 20V34C19 34.7956 19.3161 35.5587 19.8787 36.1213C20.4413 36.6839 21.2044 37 22 37H36C36.7956 37 37.5587 36.6839 38.1213 36.1213C38.6839 35.5587 39 34.7956 39 34V20C39 19.2044 38.6839 18.4413 38.1213 17.8787C37.5587 17.3161 36.7956 17 36 17ZM37 34C37 34.2652 36.8946 34.5196 36.7071 34.7071C36.5196 34.8946 36.2652 35 36 35H22C21.7348 35 21.4804 34.8946 21.2929 34.7071C21.1054 34.5196 21 34.2652 21 34V25H37V34ZM37 23H21V20C21 19.7348 21.1054 19.4804 21.2929 19.2929C21.4804 19.1054 21.7348 19 22 19H23V20C23 20.2652 23.1054 20.5196 23.2929 20.7071C23.4804 20.8946 23.7348 21 24 21C24.2652 21 24.5196 20.8946 24.7071 20.7071C24.8946 20.5196 25 20.2652 25 20V19H33V20C33 20.2652 33.1054 20.5196 33.2929 20.7071C33.4804 20.8946 33.7348 21 34 21C34.2652 21 34.5196 20.8946 34.7071 20.7071C34.8946 20.5196 35 20.2652 35 20V19H36C36.2652 19 36.5196 19.1054 36.7071 19.2929C36.8946 19.4804 37 19.7348 37 20V23ZM24 29C24.1978 29 24.3911 28.9414 24.5556 28.8315C24.72 28.7216 24.8482 28.5654 24.9239 28.3827C24.9996 28.2 25.0194 27.9989 24.9808 27.8049C24.9422 27.6109 24.847 27.4327 24.7071 27.2929C24.5673 27.153 24.3891 27.0578 24.1951 27.0192C24.0011 26.9806 23.8 27.0004 23.6173 27.0761C23.4346 27.1518 23.2784 27.28 23.1685 27.4444C23.0586 27.6089 23 27.8022 23 28C23 28.2652 23.1054 28.5196 23.2929 28.7071C23.4804 28.8946 23.7348 29 24 29ZM24 33C24.1978 33 24.3911 32.9414 24.5556 32.8315C24.72 32.7216 24.8482 32.5654 24.9239 32.3827C24.9996 32.2 25.0194 31.9989 24.9808 31.8049C24.9422 31.6109 24.847 31.4327 24.7071 31.2929C24.5673 31.153 24.3891 31.0578 24.1951 31.0192C24.0011 30.9806 23.8 31.0004 23.6173 31.0761C23.4346 31.1518 23.2784 31.28 23.1685 31.4444C23.0586 31.6089 23 31.8022 23 32C23 32.2652 23.1054 32.5196 23.2929 32.7071C23.4804 32.8946 23.7348 33 24 33Z" fill="#4B8EFF"/>
</svg>
