<svg width="152" height="122" viewBox="0 0 152 122" fill="none" xmlns="http://www.w3.org/2000/svg">
<g filter="url(#filter0_d_9418_47)">
<rect x="78.3115" y="8" width="41.8834" height="41.8834" rx="20.9417" transform="rotate(12.8456 78.3115 8)" fill="#4B8EFF"/>
</g>
<rect x="0.863281" y="56.7285" width="145.476" height="56.6225" rx="16.525" transform="rotate(-5.41485 0.863281 56.7285)" fill="#202020"/>
<path d="M46.5858 80.2037L46.8341 83.2766L32.5709 84.4288L32.1884 82.0647L39.3839 68.3042L42.4976 68.0527L39.5814 73.9678L36.0211 81.0572L46.5858 80.2037ZM43.3406 67.9846L44.9399 87.7817L41.024 88.098L39.4247 68.3009L43.3406 67.9846ZM58.7721 83.6671L59.0305 83.6462C60.1182 83.5584 61.0412 83.3515 61.7996 83.0256C62.5662 82.69 63.1829 82.2479 63.6495 81.6992C64.1161 81.1506 64.4421 80.4993 64.6275 79.7453C64.8122 78.9822 64.8665 78.1293 64.7903 77.1866L64.4872 73.4339C64.4293 72.7178 64.3059 72.0937 64.117 71.5615C63.9371 71.0286 63.7014 70.596 63.41 70.2637C63.1269 69.9216 62.8058 69.6739 62.4467 69.5204C62.0966 69.3662 61.7176 69.3056 61.3097 69.3385C60.8746 69.3737 60.4982 69.5136 60.1804 69.7582C59.8618 69.9938 59.5994 70.3024 59.393 70.684C59.1956 71.0649 59.0526 71.4962 58.9637 71.9778C58.8832 72.4496 58.8635 72.9393 58.9045 73.4469C58.9455 73.9545 59.0436 74.4347 59.1988 74.8875C59.3532 75.3312 59.5626 75.7203 59.8268 76.0548C60.0903 76.3802 60.4073 76.6329 60.7776 76.8128C61.1473 76.9837 61.5723 77.0497 62.0527 77.0109C62.515 76.9736 62.9205 76.8541 63.2692 76.6526C63.6262 76.4413 63.9198 76.1803 64.1502 75.8698C64.3897 75.5585 64.5631 75.2206 64.6705 74.8561C64.787 74.4908 64.8306 74.1269 64.8013 73.7643L66.1501 74.367C66.2014 75.0016 66.1159 75.638 65.8938 76.2764C65.6716 76.9147 65.3363 77.5075 64.8878 78.0546C64.4477 78.592 63.9224 79.0359 63.3121 79.3863C62.7017 79.7367 62.034 79.9411 61.3088 79.9997C60.3842 80.0744 59.5503 79.973 58.8071 79.6954C58.0632 79.4088 57.4178 78.9865 56.8709 78.4285C56.3323 77.8608 55.9036 77.1837 55.5846 76.3975C55.2656 75.6113 55.068 74.7468 54.9919 73.8041C54.9143 72.8432 54.9955 71.9288 55.2356 71.0609C55.4848 70.1923 55.8734 69.4127 56.4016 68.7223C56.9388 68.0311 57.6006 67.4713 58.3872 67.0428C59.182 66.6045 60.0825 66.3447 61.0887 66.2634C62.0949 66.1822 63.0261 66.3031 63.8825 66.6262C64.7389 66.9494 65.4906 67.4452 66.1376 68.1137C66.7839 68.7731 67.3056 69.5841 67.7027 70.5465C68.1089 71.5082 68.3606 72.5918 68.458 73.7974L68.5678 75.1571C68.6718 76.4443 68.628 77.6521 68.4363 78.7807C68.2537 79.9086 67.9222 80.9435 67.4417 81.8856C66.9696 82.8178 66.3513 83.6342 65.5867 84.3346C64.8313 85.0343 63.9322 85.5951 62.8897 86.0169C61.8472 86.4386 60.6642 86.703 59.3408 86.8099L59.028 86.8352L58.7721 83.6671ZM84.6136 72.8618L84.8904 76.2882C85.0105 77.7748 84.9555 79.0703 84.7253 80.1746C84.4945 81.2698 84.1077 82.1861 83.5651 82.9233C83.0309 83.6508 82.369 84.2106 81.5795 84.6028C80.7901 84.9951 79.8968 85.2315 78.8997 85.312C78.102 85.3764 77.3507 85.3368 76.6456 85.193C75.9399 85.0402 75.293 84.7685 74.7049 84.3781C74.1259 83.9869 73.6102 83.4766 73.1579 82.8471C72.7139 82.2078 72.3504 81.4343 72.0672 80.5266C71.784 79.6188 71.5941 78.5667 71.4974 77.3701L71.2206 73.9437C71.1006 72.4571 71.1563 71.1707 71.3879 70.0846C71.6278 68.9886 72.0149 68.0769 72.5492 67.3494C73.0925 66.6213 73.7593 66.0656 74.5495 65.6824C75.3389 65.2902 76.2322 65.0538 77.2293 64.9733C78.027 64.9088 78.7742 64.9534 79.4709 65.1069C80.1759 65.2507 80.8221 65.5133 81.4094 65.8946C81.9968 66.276 82.5124 66.7863 82.9564 67.4256C83.3996 68.0559 83.7628 68.8249 84.046 69.7326C84.3285 70.6313 84.5177 71.6744 84.6136 72.8618ZM81.0026 77.1224L80.6412 72.649C80.5834 71.9329 80.4921 71.3107 80.3673 70.7825C80.2516 70.2535 80.1017 69.8095 79.9175 69.4503C79.7327 69.082 79.5174 68.7892 79.2718 68.5718C79.0261 68.3544 78.7539 68.2031 78.455 68.1177C78.1562 68.0324 77.83 68.004 77.4764 68.0326C77.0323 68.0684 76.6449 68.1864 76.3144 68.3865C75.9929 68.5858 75.7297 68.8853 75.5248 69.2851C75.3191 69.6757 75.1781 70.1889 75.1017 70.8247C75.0337 71.4506 75.0355 72.2077 75.1073 73.096L75.4687 77.5694C75.5265 78.2855 75.6137 78.9126 75.7301 79.4506C75.8556 79.9879 76.0112 80.4452 76.1968 80.8225C76.3907 81.19 76.6063 81.4874 76.8436 81.7146C77.0893 81.9319 77.3615 82.0833 77.6604 82.1686C77.9683 82.2532 78.299 82.2813 78.6526 82.2527C79.0877 82.2176 79.4659 82.1003 79.7874 81.901C80.1172 81.6919 80.3846 81.3874 80.5895 80.9877C80.8028 80.5781 80.9431 80.0559 81.0104 79.4209C81.0777 78.7859 81.0751 78.0197 81.0026 77.1224ZM100.604 71.5701L100.88 74.9965C101 76.4831 100.945 77.7786 100.715 78.8829C100.484 79.9781 100.098 80.8944 99.5551 81.6316C99.0208 82.3591 98.3589 82.9189 97.5695 83.3111C96.78 83.7034 95.8867 83.9397 94.8896 84.0203C94.092 84.0847 93.3406 84.0451 92.6356 83.9013C91.9298 83.7485 91.2829 83.4768 90.6948 83.0864C90.1158 82.6952 89.6001 82.1849 89.1478 81.5554C88.7039 80.9161 88.3403 80.1426 88.0571 79.2349C87.774 78.3271 87.584 77.275 87.4874 76.0784L87.2106 72.652C87.0905 71.1654 87.1462 69.879 87.3778 68.7929C87.6177 67.6969 88.0048 66.7852 88.5391 66.0577C89.0825 65.3295 89.7492 64.7739 90.5394 64.3907C91.3289 63.9985 92.2221 63.7621 93.2193 63.6815C94.0169 63.6171 94.7641 63.6617 95.4608 63.8152C96.1658 63.959 96.812 64.2216 97.3994 64.6029C97.9867 64.9843 98.5024 65.4946 98.9464 66.1339C99.3896 66.7642 99.7528 67.5331 100.036 68.4409C100.318 69.3396 100.508 70.3826 100.604 71.5701ZM96.9926 75.8306L96.6312 71.3573C96.5733 70.6412 96.482 70.019 96.3572 69.4908C96.2415 68.9618 96.0916 68.5178 95.9075 68.1586C95.7226 67.7903 95.5074 67.4975 95.2617 67.2801C95.0161 67.0627 94.7438 66.9114 94.445 66.826C94.1461 66.7407 93.8199 66.7123 93.4664 66.7408C93.0222 66.7767 92.6349 66.8947 92.3043 67.0947C91.9829 67.2941 91.7197 67.5936 91.5147 67.9934C91.3091 68.384 91.1681 68.8972 91.0917 69.5329C91.0236 70.1589 91.0255 70.916 91.0973 71.8043L91.4586 76.2777C91.5165 76.9938 91.6036 77.6209 91.7201 78.1589C91.8456 78.6962 92.0011 79.1535 92.1867 79.5308C92.3806 79.8983 92.5963 80.1957 92.8336 80.4228C93.0792 80.6402 93.3515 80.7916 93.6503 80.8769C93.9583 80.9615 94.289 80.9896 94.6425 80.961C95.0776 80.9258 95.4559 80.8086 95.7774 80.6093C96.1072 80.4002 96.3745 80.0957 96.5795 79.696C96.7927 79.2864 96.933 78.7642 97.0003 78.1292C97.0676 77.4942 97.0651 76.728 96.9926 75.8306ZM120.349 74.5871L109.934 75.4284L109.677 72.2467L119.997 71.4131C120.84 71.345 121.5 71.1593 121.978 70.8562C122.464 70.5523 122.802 70.1601 122.991 69.6795C123.18 69.1898 123.25 68.6458 123.201 68.0476C123.154 67.4584 122.988 66.9289 122.704 66.4592C122.428 65.9797 122.028 65.6105 121.505 65.3517C120.991 65.083 120.353 64.9794 119.592 65.0409L115.989 65.332L117.33 81.9338L113.251 82.2633L111.651 62.4663L119.32 61.8468C120.879 61.7208 122.234 61.8896 123.385 62.3532C124.544 62.8161 125.462 63.5083 126.139 64.4299C126.816 65.3515 127.204 66.4378 127.305 67.6887C127.412 69.003 127.195 70.1565 126.654 71.149C126.123 72.1408 125.32 72.931 124.246 73.5196C123.18 74.1075 121.881 74.4633 120.349 74.5871ZM121.187 75.6416L121.444 78.8233L110.281 79.725L110.024 76.5434L121.187 75.6416Z" fill="white"/>
<path d="M97.4047 31.8108C97.5968 31.0049 98.4057 30.5073 99.2116 30.6993C100.017 30.8913 100.515 31.7003 100.323 32.5062C100.131 33.312 99.3221 33.8096 98.5162 33.6176C97.7103 33.4256 97.2127 32.6166 97.4047 31.8108Z" fill="white"/>
<path fill-rule="evenodd" clip-rule="evenodd" d="M103.446 27.7752C103.164 26.1192 102.008 24.7014 100.368 24.1235L99.7497 23.9057C96.6274 22.8055 93.3918 22.058 90.1033 21.6771L89.6712 21.6271C88.0017 21.4337 86.4133 22.3955 85.8109 23.9645C84.6241 27.0559 83.8532 30.2913 83.5184 33.5857C83.3485 35.2577 84.3325 36.8325 85.9098 37.4127L86.318 37.5629C89.4249 38.7059 92.6499 39.4979 95.9329 39.924L96.5829 40.0083C98.3075 40.2322 99.9789 39.4882 100.977 38.1371C102.06 38.077 103.04 37.3844 103.425 36.3317C104.114 34.4453 104.581 32.485 104.817 30.4905C104.948 29.3774 104.385 28.3171 103.446 27.7752ZM99.2513 25.3204C96.2344 24.2574 93.1081 23.5352 89.9307 23.1672L89.4986 23.1171C88.5094 23.0026 87.5682 23.5725 87.2113 24.5021C86.072 27.4695 85.332 30.5751 85.0107 33.7373C84.91 34.728 85.4931 35.6612 86.4277 36.005L86.8359 36.1552C89.8379 37.2595 92.9539 38.0247 96.126 38.4364L96.776 38.5208C97.6241 38.6309 98.4534 38.3975 99.1049 37.913C97.6175 37.649 96.14 37.2565 94.729 36.7491C93.5271 36.3169 92.7601 35.1066 92.9112 33.8265C93.1466 31.832 93.6137 29.8717 94.303 27.9853C94.7454 26.7746 95.9758 26.0402 97.2434 26.1965C98.7317 26.3799 100.227 26.6959 101.674 27.131C101.311 26.4047 100.676 25.8225 99.8695 25.5382L99.2513 25.3204ZM102.003 28.8096C102.003 28.8135 102.002 28.8173 102.002 28.8212L101.999 28.8604L102.199 28.8765C102.297 28.9102 102.394 28.9445 102.491 28.9794C103.047 29.1794 103.395 29.7393 103.327 30.3146C103.105 32.1934 102.665 34.0399 102.016 35.8168C101.817 36.361 101.254 36.7041 100.668 36.6318C100.566 36.6192 100.463 36.6059 100.361 36.592L100.175 36.5159L100.16 36.5523C100.158 36.5559 100.157 36.5595 100.155 36.5631C98.4874 36.3218 96.8167 35.9059 95.2366 35.3376C94.6804 35.1376 94.3329 34.5777 94.4009 34.0023C94.6226 32.1236 95.0626 30.277 95.7119 28.5001C95.9108 27.956 96.4734 27.6129 97.06 27.6852C98.7266 27.8906 100.405 28.2728 102.003 28.8096Z" fill="white"/>
<circle cx="48" cy="112" r="10" fill="#FF941F"/>
<path d="M45 112H51" stroke="white" stroke-width="1.5" stroke-linecap="round"/>
<path d="M48 109L48 115" stroke="white" stroke-width="1.5" stroke-linecap="round"/>
<defs>
<filter id="filter0_d_9418_47" x="51.127" y="0.127197" width="83.8926" height="83.8926" filterUnits="userSpaceOnUse" color-interpolation-filters="sRGB">
<feFlood flood-opacity="0" result="BackgroundImageFix"/>
<feColorMatrix in="SourceAlpha" type="matrix" values="0 0 0 0 0 0 0 0 0 0 0 0 0 0 0 0 0 0 127 0" result="hardAlpha"/>
<feMorphology radius="3" operator="erode" in="SourceAlpha" result="effect1_dropShadow_9418_47"/>
<feOffset dx="-1" dy="9"/>
<feGaussianBlur stdDeviation="12"/>
<feComposite in2="hardAlpha" operator="out"/>
<feColorMatrix type="matrix" values="0 0 0 0 0.309804 0 0 0 0 0.560784 0 0 0 0 0.992157 0 0 0 0.84 0"/>
<feBlend mode="normal" in2="BackgroundImageFix" result="effect1_dropShadow_9418_47"/>
<feBlend mode="normal" in="SourceGraphic" in2="effect1_dropShadow_9418_47" result="shape"/>
</filter>
</defs>
</svg>
