<svg width="55" height="55" viewBox="0 0 55 55" fill="none" xmlns="http://www.w3.org/2000/svg">
<rect width="55" height="55" rx="16" fill="#5191FF" fill-opacity="0.12"/>
<path d="M33 30C32.4067 30 31.8266 30.1759 31.3333 30.5056C30.8399 30.8352 30.4554 31.3038 30.2284 31.8519C30.0013 32.4001 29.9419 33.0033 30.0576 33.5853C30.1734 34.1672 30.4591 34.7018 30.8787 35.1213C31.2982 35.5409 31.8328 35.8266 32.4147 35.9424C32.9967 36.0581 33.5999 35.9987 34.1481 35.7716C34.6962 35.5446 35.1648 35.1601 35.4944 34.6667C35.8241 34.1734 36 33.5933 36 33C36 32.2044 35.6839 31.4413 35.1213 30.8787C34.5587 30.3161 33.7956 30 33 30ZM33 34C32.8022 34 32.6089 33.9414 32.4444 33.8315C32.28 33.7216 32.1518 33.5654 32.0761 33.3827C32.0004 33.2 31.9806 32.9989 32.0192 32.8049C32.0578 32.6109 32.153 32.4327 32.2929 32.2929C32.4327 32.153 32.6109 32.0578 32.8049 32.0192C32.9989 31.9806 33.2 32.0004 33.3827 32.0761C33.5654 32.1518 33.7216 32.28 33.8315 32.4444C33.9414 32.6089 34 32.8022 34 33C34 33.2652 33.8946 33.5196 33.7071 33.7071C33.5196 33.8946 33.2652 34 33 34ZM23 30C22.4067 30 21.8266 30.1759 21.3333 30.5056C20.8399 30.8352 20.4554 31.3038 20.2284 31.8519C20.0013 32.4001 19.9419 33.0033 20.0576 33.5853C20.1734 34.1672 20.4591 34.7018 20.8787 35.1213C21.2982 35.5409 21.8328 35.8266 22.4147 35.9424C22.9967 36.0581 23.5999 35.9987 24.1481 35.7716C24.6962 35.5446 25.1648 35.1601 25.4944 34.6667C25.8241 34.1734 26 33.5933 26 33C26 32.2044 25.6839 31.4413 25.1213 30.8787C24.5587 30.3161 23.7956 30 23 30ZM23 34C22.8022 34 22.6089 33.9414 22.4444 33.8315C22.28 33.7216 22.1518 33.5654 22.0761 33.3827C22.0004 33.2 21.9806 32.9989 22.0192 32.8049C22.0578 32.6109 22.153 32.4327 22.2929 32.2929C22.4327 32.153 22.6109 32.0578 22.8049 32.0192C22.9989 31.9806 23.2 32.0004 23.3827 32.0761C23.5654 32.1518 23.7216 32.28 23.8315 32.4444C23.9414 32.6089 24 32.8022 24 33C24 33.2652 23.8946 33.5196 23.7071 33.7071C23.5196 33.8946 23.2652 34 23 34ZM36 22.5C35.9974 20.7769 35.3117 19.1251 34.0933 17.9067C32.8749 16.6883 31.2231 16.0026 29.5 16H29C28.7348 16 28.4804 16.1054 28.2929 16.2929C28.1054 16.4804 28 16.7348 28 17V22H21.52L20.27 18.65C20.1985 18.4586 20.0701 18.2937 19.902 18.1775C19.7339 18.0613 19.5343 17.9993 19.33 18H17C16.7348 18 16.4804 18.1054 16.2929 18.2929C16.1054 18.4804 16 18.7348 16 19C16 19.2652 16.1054 19.5196 16.2929 19.7071C16.4804 19.8946 16.7348 20 17 20H18.64L19.89 23.37L20.4 24.74V24.83C20.8659 26.0671 21.7012 27.1309 22.7924 27.8769C23.8837 28.6229 25.1782 29.015 26.5 29H29.5C30.354 29.0013 31.1998 28.8341 31.989 28.5079C32.7782 28.1817 33.4953 27.703 34.0991 27.0991C34.703 26.4953 35.1817 25.7782 35.5079 24.989C35.8341 24.1998 36.0013 23.354 36 22.5ZM32.68 25.68C32.2635 26.0993 31.768 26.4319 31.2222 26.6585C30.6764 26.885 30.091 27.0011 29.5 27H26.5C25.6061 27.0027 24.7319 26.7374 23.9904 26.2383C23.2488 25.7392 22.674 25.0292 22.34 24.2C22.3357 24.1802 22.3357 24.1598 22.34 24.14L22.26 24H33.74C33.522 24.6347 33.159 25.2099 32.68 25.68ZM30 22V18C31.0244 18.1068 31.9809 18.5626 32.7091 19.2909C33.4374 20.0191 33.8932 20.9756 34 22H30Z" fill="#4B8EFF"/>
</svg>
