<svg width="55" height="55" viewBox="0 0 55 55" fill="none" xmlns="http://www.w3.org/2000/svg">
<rect width="55" height="55" rx="16" fill="#5191FF" fill-opacity="0.12"/>
<path d="M38.4899 23.1901L37.4899 22.6401L28.4899 17.6401H28.3799C28.3186 17.6142 28.255 17.5941 28.1899 17.5801H27.9999H27.8199C27.7516 17.5941 27.6846 17.6142 27.6199 17.6401H27.5099L18.5099 22.6401C18.356 22.7273 18.228 22.8538 18.1389 23.0066C18.0499 23.1595 18.0029 23.3332 18.0029 23.5101C18.0029 23.687 18.0499 23.8607 18.1389 24.0135C18.228 24.1664 18.356 24.2929 18.5099 24.3801L20.9999 25.7601V30.5001C20.9999 31.2957 21.3159 32.0588 21.8786 32.6214C22.4412 33.184 23.2042 33.5001 23.9999 33.5001H31.9999C32.7955 33.5001 33.5586 33.184 34.1212 32.6214C34.6838 32.0588 34.9999 31.2957 34.9999 30.5001V25.7601L36.9999 24.6401V27.5001C36.9999 27.7653 37.1052 28.0196 37.2928 28.2072C37.4803 28.3947 37.7347 28.5001 37.9999 28.5001C38.2651 28.5001 38.5194 28.3947 38.707 28.2072C38.8945 28.0196 38.9999 27.7653 38.9999 27.5001V24.0601C38.9996 23.8829 38.9522 23.7089 38.8626 23.5561C38.773 23.4032 38.6443 23.2769 38.4899 23.1901ZM32.9999 30.5001C32.9999 30.7653 32.8945 31.0196 32.707 31.2072C32.5194 31.3947 32.2651 31.5001 31.9999 31.5001H23.9999C23.7347 31.5001 23.4803 31.3947 23.2928 31.2072C23.1052 31.0196 22.9999 30.7653 22.9999 30.5001V26.8701L27.5099 29.3701L27.6599 29.4301H27.7499C27.8329 29.4405 27.9169 29.4405 27.9999 29.4301C28.0829 29.4405 28.1669 29.4405 28.2499 29.4301H28.3399C28.393 29.4189 28.4437 29.3986 28.4899 29.3701L32.9999 26.8701V30.5001ZM27.9999 27.3601L21.0599 23.5001L27.9999 19.6401L34.9399 23.5001L27.9999 27.3601Z" fill="#4B8EFF"/>
</svg>
