<svg width="34" height="34" viewBox="0 0 34 34" fill="none" xmlns="http://www.w3.org/2000/svg">
<circle cx="17" cy="16" r="10" fill="#4F8FFD"/>
<circle cx="17" cy="17" r="16" stroke="#D8D8D8" stroke-linecap="round" stroke-dasharray="0.1 4"/>
<path d="M20.2988 19.1094V20H14.7148V19.2207L17.5098 16.1094C17.8535 15.7266 18.1191 15.4023 18.3066 15.1367C18.498 14.8672 18.6309 14.627 18.7051 14.416C18.7832 14.2012 18.8223 13.9824 18.8223 13.7598C18.8223 13.4785 18.7637 13.2246 18.6465 12.998C18.5332 12.7676 18.3652 12.584 18.1426 12.4473C17.9199 12.3105 17.6504 12.2422 17.334 12.2422C16.9551 12.2422 16.6387 12.3164 16.3848 12.4648C16.1348 12.6094 15.9473 12.8125 15.8223 13.0742C15.6973 13.3359 15.6348 13.6367 15.6348 13.9766H14.5508C14.5508 13.4961 14.6562 13.0566 14.8672 12.6582C15.0781 12.2598 15.3906 11.9434 15.8047 11.709C16.2188 11.4707 16.7285 11.3516 17.334 11.3516C17.873 11.3516 18.334 11.4473 18.7168 11.6387C19.0996 11.8262 19.3926 12.0918 19.5957 12.4355C19.8027 12.7754 19.9062 13.1738 19.9062 13.6309C19.9062 13.8809 19.8633 14.1348 19.7773 14.3926C19.6953 14.6465 19.5801 14.9004 19.4316 15.1543C19.2871 15.4082 19.1172 15.6582 18.9219 15.9043C18.7305 16.1504 18.5254 16.3926 18.3066 16.6309L16.0215 19.1094H20.2988Z" fill="white"/>
</svg>
